<?xml version="1.0"?>
<svg xmlns="http://www.w3.org/2000/svg" xmlns:xlink="http://www.w3.org/1999/xlink" xmlns:svgjs="http://svgjs.com/svgjs" version="1.1" width="512" height="512" x="0" y="0" viewBox="0 0 60 60" style="enable-background:new 0 0 512 512" xml:space="preserve" class=""><g><g xmlns="http://www.w3.org/2000/svg" id="Page-1" fill="none" fill-rule="evenodd"><g id="031---Brain-Research" fill="rgb(0,0,0)" fill-rule="nonzero"><path id="Shape" d="m55.073 39.676-18.51 6.17c-.3059974.102017-.6264447.154018-.949.154h-.575c.4755431-1.3021295.3385067-2.7492771-.373-3.939l-.089-.147c-1.0881016-1.8035179-3.038674-2.9082736-5.145-2.914h-5.232c-1.845108-.0020745-3.634951-.6299473-5.077-1.781-1.7963064-1.4330224-4.0251194-2.2152043-6.323-2.219h-1.984c-.4222546-1.1943509-1.54921457-1.9947486-2.816-2h-5c-1.65685425 0-3 1.3431458-3 3v21c0 1.6568542 1.34314575 3 3 3h5c.84849384-.0026614 1.6557601-.3662948 2.22-1h25.08c1.467221.00049 2.906212-.4032856 4.159-1.167l18.741-11.409c1.6276173-.9901832 2.2517913-3.0449436 1.4499321-4.7731283-.8018593-1.7281847-2.7738821-2.5783375-4.5809321-1.9748717zm-47.073 18.324h-5c-.55228475 0-1-.4477153-1-1v-21c0-.5522847.44771525-1 1-1h5c.55228475 0 1 .4477153 1 1v21c0 .5522847-.44771525 1-1 1zm49.968-14.441c-.0895889.4817962-.3806653.9024017-.8 1.156l-18.749 11.41c-.9395909.5725464-2.018709.8752808-3.119.875l-24.3.0000002v-20.0000002h1.8c1.845108.0020745 3.634951.6299473 5.077 1.781 1.7963064 1.4330224 4.0251194 2.2152043 6.323 2.219h5.23c1.4042669.0039537 2.7046337.7405754 3.43 1.943l.089.147c.5459744.910232.4870881 2.0602928-.149 2.91h-6.075c-1.9743155-.002054-3.9047017.5827006-5.546 1.68l-.733.488c-.3042178.195156-.4794522.5392835-.4583434.9001003s.2352753.6821632.5601743.8405141.7099611.1290596 1.0071691-.0766144l.733-.488c1.3131213-.8778224 2.8574884-1.3456226 4.437-1.344h8.889c.5373321.0001732 1.0711793-.0862688 1.581-.256l18.511-6.171c.7127634-.2378448 1.497674.0090028 1.946.612.2970653.3916942.4121015.8918831.316 1.374z" fill="#0bb1e5" data-original="#000000" style="" class=""/><path id="Shape" d="m38.982 16.188c.0744538-.3538613-.0479307-.7203513-.3200693-.9584726-.2721387-.2381213-.6516311-.3107736-.9924777-.1900059-.3408465.1207677-.5899418.4161394-.651453.7724785-.3723423 1.9645378-1.825176 3.5487223-3.7502305 4.0892893s-3.9901865-.0557514-5.3307695-1.5392893c-.3763988-.3765332-.9818154-.3921363-1.37711-.0354915s-.4418469.9604705-.10589 1.3734915c1.1097214 1.2261399 2.6042267 2.0374126 4.237 2.3-.7082808 1.2413486-2.0298121 2.0054603-3.459 2-.5522847 0-1 .4477153-1 1s.4477153 1 1 1c2.5338765.0080662 4.7947721-1.5897725 5.633-3.981 3.0711457-.4458646 5.5247018-2.7847048 6.117-5.831z" fill="#0bb1e5" data-original="#000000" style="" class=""/><path id="Shape" d="m52.21 26.5c2.1219553-2.4990064 2.3832074-6.0837415.646-8.864.5624503-1.3645643.47669-2.9104338-.2332482-4.2044098s-1.9676737-2.1968427-3.4207518-2.4555902c-.8428505-4.9663303-5.12976-8.61064614-10.167-8.643-.17 0-.332.021-.5.029-.7698571-1.28926288-2.0937984-2.14890071-3.5847543-2.32758838-1.4909559-.17868768-2.9805365.34375593-4.0332457 1.41458838-1.3805042-.94219031-3.0126201-1.44708696-4.684-1.449-2.6501843.01288967-5.1397199 1.27247613-6.72 3.4-1.7911118-.57666777-3.7489512-.28073715-5.289614.79953382s-2.486115 2.82004964-2.554386 4.70046618c-1.87614714.7287024-3.11348995 2.5333095-3.117 4.546.00456616.3650802.05086695.7284408.138 1.083-1.10433517 1.6314141-1.69311251 3.5569598-1.69 5.527-.00001342 5.4833395 4.4386739 9.9318687 9.922 9.944.8513778.0001798 1.6991605-.1104152 2.522-.329 1.0717545 2.1715442 3.1180972 3.6989618 5.504781 4.1088424 2.3866839.4098806 4.8253742-.3472935 6.560219-2.0368424.9329568.304928 1.9005394.4913892 2.88.555.551 2.286 2.241 3.66 5.884 4.881 1.0318181.3235402 1.9522986.9298033 2.657 1.75.7026049.837329 1.7369757 1.3245432 2.83 1.333.4757281.0002683.9465629-.0960079 1.384-.283 1.3252975-.5660377 2.1853273-1.8678853 2.186-3.309.0001076-.3761334-.0599857-.74986-.178-1.107-.2975845-.9421144-.7001109-1.8477988-1.2-2.7 2.1856825-1.4936253 3.7109053-3.7728626 4.258-6.363zm-8.7 6.044c-.5135633.083605-.8771992.5470675-.8362143 1.0657749.040985.5187073.4728938.919311.9932143.9212251.0535561-.000053.1070351-.0040639.16-.012.8185964-.1332077 1.6178512-.3659319 2.38-.693.4381163.7429309.7884635 1.5342323 1.044 2.358.0525307.1559508.0792158.3194398.079.484-.0006418.6403597-.3830274 1.218659-.972 1.47-.6745984.2655791-1.4435103.0632339-1.9-.5-.9392428-1.1005777-2.1679968-1.9160519-3.547-2.354-2.914-.976-4.015-1.867-4.451-3.039.7410331-.0738875 1.4733416-.2182062 2.187-.431.3415459-.1048574.6012066-.3839623.6811703-.7321785.0799637-.3482161-.0319178-.7126413-.2935-.956s-.6331244-.328679-.9746703-.2238215c-.7183657.2196159-1.4595355.3561736-2.209.407-1.4489609.1147154-2.9048829-.1056404-4.255-.644-.3964725-.1271453-.8307532-.0195428-1.122.278-1.3060229 1.5230403-3.3288407 2.2281885-5.2986406 1.8470903-1.9697999-.3810981-3.5836436-1.7898331-4.2273594-3.6900903-.5390167-1.5621244-.3596427-3.2826507.49-4.7.2838744-.4738603.1298603-1.0881256-.344-1.372s-1.0881256-.1298603-1.372.344c-.3243077.5466642-.5786335 1.1319159-.757 1.742-.5707108.015028-1.1238465-.1981843-1.5368164-.5923828s-.651665-.9368248-.6631836-1.5076172v-.031c-.000781-.2636059-.1068717-.5159691-.2946732-.7009536s-.4417392-.2872493-.7053268-.2840464c-.5553216.0076667-1.0011483.4606267-1 1.016.0024844 2.1813321 1.7125024 3.9788066 3.891 4.09 0 .063-.012.125-.012.188.0003521.5016419.0499229 1.002039.148 1.494-2.9758159.7319597-6.1066779-.3205774-8.0359852-2.7015476-1.92930723-2.3809703-2.30995733-5.6620123-.9770148-8.4214524.3280202.3808134.7128904.7086783 1.141.972.473308.2849789 1.0880211.132308 1.373-.341s.132308-1.0880211-.341-1.373c-1.1110143-.667911-1.6411098-1.9940949-1.2965959-3.2438021s1.4792782-2.1169298 2.7755959-2.1211979c.9078706-.0026056 1.7624297.4283894 2.3 1.16.3299901.4432085.9567915.5349901 1.4.205s.5349901-.9567915.205-1.4c-.8556249-1.15804509-2.1841627-1.87293199-3.622-1.949.287842-1.98179779 1.9834199-3.45404943 3.986-3.461.2656491.0031389.5303111.03295525.79.089-.1414334.34346661-.2600249.69590048-.355 1.055-.1244587.5293486.1968889 1.06112806.7233961 1.19710617.5265073.13597811 1.0651711-.17369095 1.2126039-.69710617.515826-2.01250821 1.9870826-3.64337407 3.9360237-4.36302299 1.948941-.71964892 4.1270218-.43630551 5.8269763.75802299-.2174607.55415611-.3306934 1.14371251-.334 1.739 0 .55228475.4477153 1 1 1s1-.44771525 1-1c-.0194104-1.04153684.5251344-2.01237161 1.4240357-2.53882401.8989014-.52645239 2.0120272-.52645239 2.9109286 0 .8989013.5264524 1.4434461 1.49728717 1.4240357 2.53882401 0 .55228475.4477153 1 1 1s1-.44771525 1-1c-.00812-.18321621-.026482-.36583479-.055-.547 3.8949674.1033126 7.2030828 2.88149928 7.978 6.7-.6383394.1520414-1.2389298.4327706-1.765.825-.4418278.3313708-.5313708.9581722-.2 1.4s.9581722.5313708 1.4.2c1.0938051-.813074 2.6073115-.7501256 3.6298225.1509683 1.0225109.9010938 1.2752653 2.3946732.6061775 3.5820317-.2991782.52452-.7532597.9436722-1.3 1.2-.5000938.234721-.715221.8304062-.4805 1.3305s.8304062.715221 1.3305.4805c.4150025-.1977517.8001118-.4529203 1.144-.758.8548985 1.993036.4696955 4.3015192-.986 5.909l-.02.021c-1.707056 1.8465051-4.4274369 2.3458593-6.679 1.226-.2933828-.1471737-.572277-.3216082-.833-.521.9843085-1.2453158 1.1589593-2.9477708.448-4.367-.2493412-.4893845-.8467164-.6860743-1.3380295-.440555-.491313.2455192-.6926529.8413432-.4509705 1.334555.4678839.9374935.1765755 2.0763219-.684 2.674-.5043494.3358189-1.1274193.4420924-1.714572.2924447-.5871526-.1496476-1.0833448-.5411876-1.365428-1.0774447-.2493412-.4893845-.8467164-.6860743-1.3380295-.440555-.491313.2455192-.6926529.8413432-.4509705 1.334555.9604217 1.9585536 3.2965663 2.8085022 5.291 1.925.4614445.4200301.9749898.778974 1.528 1.068 1.944257 1.0055857 4.2317064 1.1079324 6.258.28-1.241312 2.0645251-3.3254885 3.4809026-5.702 3.875z" fill="#0bb1e5" data-original="#000000" style="" class=""/><path id="Shape" d="m27.5 11c0-.5522847-.4477153-1-1-1-3.0361953.0033068-5.4966932 2.4638047-5.5 5.5 0 .5522847.4477153 1 1 1s1-.4477153 1-1c0-1.9329966 1.5670034-3.5 3.5-3.5.5522847 0 1-.4477153 1-1z" fill="#0bb1e5" data-original="#000000" style="" class=""/><path id="Shape" d="m2.293 3.293c-.39038194.39049985-.39038194 1.02350015 0 1.414l2 2c.39237889.37897221 1.01608478.37355237 1.40181858-.01218142.38573379-.3857338.39115363-1.00943969.01218142-1.40181858l-2-2c-.39049985-.39038194-1.02350015-.39038194-1.414 0z" fill="#0bb1e5" data-original="#000000" style="" class=""/><path id="Shape" d="m57.707 3.293c-.3904999-.39038194-1.0235001-.39038194-1.414 0l-2 2c-.2599566.25107447-.3642126.62287789-.2726972.97250732.0915155.34962944.3645604.6226744.7141899.71418984.3496294.09151544.7214328-.01274058.9725073-.27269716l2-2c.3903819-.39049985.3903819-1.02350015 0-1.414z" fill="#0bb1e5" data-original="#000000" style="" class=""/><path id="Shape" d="m4.293 27.293-2 2c-.25995658.2510745-.3642126.6228779-.27269716.9725073.09151544.3496295.3645604.6226744.71418984.7141899.34962943.0915154.72143285-.0127406.97250732-.2726972l2-2c.37897221-.3923789.37355237-1.0160848-.01218142-1.4018186-.3857338-.3857338-1.00943969-.3911536-1.40181858-.0121814z" fill="#0bb1e5" data-original="#000000" style="" class=""/><path id="Shape" d="m56.293 30.707c.3923789.3789722 1.0160848.3735524 1.4018186-.0121814s.3911536-1.0094397.0121814-1.4018186l-2-2c-.3923789-.3789722-1.0160848-.3735524-1.4018186.0121814s-.3911536 1.0094397-.0121814 1.4018186z" fill="#0bb1e5" data-original="#000000" style="" class=""/><path id="Shape" d="m0 17c0 .5522847.44771525 1 1 1h2c.55228475 0 1-.4477153 1-1s-.44771525-1-1-1h-2c-.55228475 0-1 .4477153-1 1z" fill="#0bb1e5" data-original="#000000" style="" class=""/><path id="Shape" d="m59 16h-2c-.5522847 0-1 .4477153-1 1s.4477153 1 1 1h2c.5522847 0 1-.4477153 1-1s-.4477153-1-1-1z" fill="#0bb1e5" data-original="#000000" style="" class=""/></g></g></g></svg>
