<?xml version="1.0"?>
<svg xmlns="http://www.w3.org/2000/svg" xmlns:xlink="http://www.w3.org/1999/xlink" xmlns:svgjs="http://svgjs.com/svgjs" version="1.1" width="512" height="512" x="0" y="0" viewBox="0 0 64 64" style="enable-background:new 0 0 512 512" xml:space="preserve" class=""><g><g xmlns="http://www.w3.org/2000/svg"><g><path d="m3 34.994c-.553 0-1-.447-1-1v-3.867c0-.553.447-1 1-1s1 .447 1 1v3.867c0 .553-.447 1-1 1z" fill="#0bb1e5" data-original="#000000" style="" class=""/></g><g><path d="m17 34.994c-.553 0-1-.447-1-1v-4.5c0-.553.447-1 1-1s1 .447 1 1v4.5c0 .553-.447 1-1 1z" fill="#0bb1e5" data-original="#000000" style="" class=""/></g><g><path d="m17 30.494c-.553 0-1-.447-1-1 0-3.584-2.916-6.5-6.501-6.5-3.584 0-6.499 2.916-6.499 6.5 0 .553-.447 1-1 1s-1-.447-1-1c0-4.687 3.813-8.5 8.499-8.5 4.688 0 8.501 3.813 8.501 8.5 0 .553-.447 1-1 1z" fill="#0bb1e5" data-original="#000000" style="" class=""/></g><g><path d="m17.001 31.865c-.301 0-.598-.135-.795-.392-1.931-2.522-2.456-2.313-4.414-1.538-1.879.743-4.715 1.87-9.948 1.042-.545-.086-.918-.598-.831-1.144.086-.545.601-.919 1.144-.831 4.693.742 7.123-.223 8.899-.927 2.408-.954 4.024-1.362 6.738 2.181.336.438.253 1.066-.186 1.402-.181.14-.395.207-.607.207z" fill="#0bb1e5" data-original="#000000" style="" class=""/></g><g><path d="m12.999 29.471c-.147 0-.298-.033-.439-.103-.496-.243-.7-.843-.457-1.338l2-4.072c.243-.497.842-.701 1.338-.457.496.243.7.843.457 1.338l-2 4.072c-.174.355-.53.56-.899.56z" fill="#0bb1e5" data-original="#000000" style="" class=""/></g><g><path d="m1 47.994c-.553 0-1-.447-1-1 0-2.206 1.794-4 4-4 .553 0 1 .447 1 1s-.447 1-1 1c-1.103 0-2 .896-2 2 0 .553-.447 1-1 1z" fill="#0bb1e5" data-original="#000000" style="" class=""/></g><g><path d="m7 45h-3c-.553 0-1-.447-1-1s.447-1 1-1h3c.553 0 1 .447 1 1s-.447 1-1 1z" fill="#0bb1e5" data-original="#000000" style="" class=""/></g><g><path d="m1 51.998c-.553 0-1-.447-1-1v-4.004c0-.553.447-1 1-1s1 .447 1 1v4.004c0 .553-.447 1-1 1z" fill="#0bb1e5" data-original="#000000" style="" class=""/></g><g><path d="m19 47.994c-.553 0-1-.447-1-1 0-1.104-.897-2-2-2-.553 0-1-.447-1-1s.447-1 1-1c2.206 0 4 1.794 4 4 0 .553-.447 1-1 1z" fill="#0bb1e5" data-original="#000000" style="" class=""/></g><g><path d="m16 45h-3c-.553 0-1-.447-1-1s.447-1 1-1h3c.553 0 1 .447 1 1s-.447 1-1 1z" fill="#0bb1e5" data-original="#000000" style="" class=""/></g><g><path d="m19 51.998c-.553 0-1-.447-1-1v-4.004c0-.553.447-1 1-1s1 .447 1 1v4.004c0 .553-.447 1-1 1z" fill="#0bb1e5" data-original="#000000" style="" class=""/></g><g><path d="m19 51.998h-18c-.553 0-1-.447-1-1s.447-1 1-1h18c.553 0 1 .447 1 1s-.447 1-1 1z" fill="#0bb1e5" data-original="#000000" style="" class=""/></g><g><path d="m7 45c-.553 0-1-.447-1-1v-3.684c0-.553.447-1 1-1s1 .447 1 1v3.684c0 .553-.447 1-1 1z" fill="#0bb1e5" data-original="#000000" style="" class=""/></g><g><path d="m13 44.994c-.553 0-1-.447-1-1v-3.678c0-.553.447-1 1-1s1 .447 1 1v3.678c0 .553-.447 1-1 1z" fill="#0bb1e5" data-original="#000000" style="" class=""/></g><g><path d="m10 41.99c-4.411 0-8-3.59-8-8 0-.553.447-1 1-1s1 .447 1 1c0 3.309 2.691 6 6 6s6-2.691 6-6c0-.553.447-1 1-1s1 .447 1 1c0 4.41-3.589 8-8 8z" fill="#0bb1e5" data-original="#000000" style="" class=""/></g><g><path d="m45 47.994c-.553 0-1-.447-1-1 0-2.206 1.794-4 4-4 .553 0 1 .447 1 1s-.447 1-1 1c-1.104 0-2 .896-2 2 0 .553-.447 1-1 1z" fill="#0bb1e5" data-original="#000000" style="" class=""/></g><g><path d="m51 45h-3c-.553 0-1-.447-1-1s.447-1 1-1h3c.553 0 1 .447 1 1s-.447 1-1 1z" fill="#0bb1e5" data-original="#000000" style="" class=""/></g><g><path d="m45 51.998c-.553 0-1-.447-1-1v-4.004c0-.553.447-1 1-1s1 .447 1 1v4.004c0 .553-.447 1-1 1z" fill="#0bb1e5" data-original="#000000" style="" class=""/></g><g><path d="m63 47.994c-.553 0-1-.447-1-1 0-1.104-.896-2-2-2-.553 0-1-.447-1-1s.447-1 1-1c2.206 0 4 1.794 4 4 0 .553-.447 1-1 1z" fill="#0bb1e5" data-original="#000000" style="" class=""/></g><g><path d="m60 45h-3c-.553 0-1-.447-1-1s.447-1 1-1h3c.553 0 1 .447 1 1s-.447 1-1 1z" fill="#0bb1e5" data-original="#000000" style="" class=""/></g><g><path d="m63 51.998c-.553 0-1-.447-1-1v-4.004c0-.553.447-1 1-1s1 .447 1 1v4.004c0 .553-.447 1-1 1z" fill="#0bb1e5" data-original="#000000" style="" class=""/></g><g><path d="m63 51.998h-18c-.553 0-1-.447-1-1s.447-1 1-1h18c.553 0 1 .447 1 1s-.447 1-1 1z" fill="#0bb1e5" data-original="#000000" style="" class=""/></g><g><path d="m51 45c-.553 0-1-.447-1-1v-3.684c0-.553.447-1 1-1s1 .447 1 1v3.684c0 .553-.447 1-1 1z" fill="#0bb1e5" data-original="#000000" style="" class=""/></g><g><path d="m57 44.994c-.553 0-1-.447-1-1v-3.678c0-.553.447-1 1-1s1 .447 1 1v3.678c0 .553-.447 1-1 1z" fill="#0bb1e5" data-original="#000000" style="" class=""/></g><g><path d="m20 58.998c-.553 0-1-.447-1-1 0-3.309 2.691-6 6-6 .553 0 1 .447 1 1s-.447 1-1 1c-2.206 0-4 1.794-4 4 0 .553-.447 1-1 1z" fill="#0bb1e5" data-original="#000000" style="" class=""/></g><g><path d="m28 53.998h-3c-.553 0-1-.447-1-1s.447-1 1-1h3c.553 0 1 .447 1 1s-.447 1-1 1z" fill="#0bb1e5" data-original="#000000" style="" class=""/></g><g><path d="m20 63c-.553 0-1-.447-1-1v-4.002c0-.553.447-1 1-1s1 .447 1 1v4.002c0 .553-.447 1-1 1z" fill="#0bb1e5" data-original="#000000" style="" class=""/></g><g><path d="m21 64c-1.103 0-2-.896-2-2 0-.531.418-.914.948-.943.57-.037.992.416 1.052.942.552 0 1 .448 1 1 0 .554-.447 1.001-1 1.001z" fill="#0bb1e5" data-original="#000000" style="" class=""/></g><g><path d="m44 58.998c-.553 0-1-.447-1-1 0-2.206-1.794-4-4-4-.553 0-1-.447-1-1s.447-1 1-1c3.309 0 6 2.691 6 6 0 .553-.447 1-1 1z" fill="#0bb1e5" data-original="#000000" style="" class=""/></g><g><path d="m39 53.998h-3c-.553 0-1-.447-1-1s.447-1 1-1h3c.553 0 1 .447 1 1s-.447 1-1 1z" fill="#0bb1e5" data-original="#000000" style="" class=""/></g><g><path d="m44 63c-.553 0-1-.447-1-1v-4.002c0-.553.447-1 1-1s1 .447 1 1v4.002c0 .553-.447 1-1 1z" fill="#0bb1e5" data-original="#000000" style="" class=""/></g><g><path d="m43 64c-.553 0-1-.447-1-1s.447-1 1-1c0-.553.447-1 1-1s1 .447 1 1c0 1.104-.896 2-2 2z" fill="#0bb1e5" data-original="#000000" style="" class=""/></g><g><path d="m43 64h-22c-.553 0-1-.447-1-1s.447-1 1-1h22c.553 0 1 .447 1 1s-.447 1-1 1z" fill="#0bb1e5" data-original="#000000" style="" class=""/></g><g><path d="m28 53.998c-.553 0-1-.447-1-1v-3.936c0-.554.447-1 1-1s1 .446 1 1v3.936c0 .553-.447 1-1 1z" fill="#0bb1e5" data-original="#000000" style="" class=""/></g><g><path d="m36 53.998c-.553 0-1-.447-1-1v-3.936c0-.554.447-1 1-1s1 .446 1 1v3.936c0 .553-.447 1-1 1z" fill="#0bb1e5" data-original="#000000" style="" class=""/></g><g><path d="m31.999 50.998c-5.514 0-9.999-4.484-9.999-9.998 0-.553.447-1 1-1s1 .447 1 1c0 4.41 3.588 7.998 7.999 7.998 4.412 0 8.001-3.588 8.001-7.998 0-.553.447-1 1-1s1 .447 1 1c0 5.514-4.486 9.998-10.001 9.998z" fill="#0bb1e5" data-original="#000000" style="" class=""/></g><g><path d="m23 42.049c-.553 0-1-.447-1-1v-6.055c0-.553.447-1 1-1s1 .447 1 1v6.055c0 .553-.447 1-1 1z" fill="#0bb1e5" data-original="#000000" style="" class=""/></g><g><path d="m41 42c-.553 0-1-.447-1-1v-6.006c0-.553.447-1 1-1s1 .447 1 1v6.006c0 .553-.447 1-1 1z" fill="#0bb1e5" data-original="#000000" style="" class=""/></g><g><path d="m41 35.994c-.553 0-1-.447-1-1 0-1.654-1.346-3-3-3-.553 0-1-.447-1-1s.447-1 1-1c2.757 0 5 2.243 5 5 0 .553-.447 1-1 1z" fill="#0bb1e5" data-original="#000000" style="" class=""/></g><g><path d="m37 31.994c-.553 0-1-.447-1-1v-4c0-.553.447-1 1-1s1 .447 1 1v4c0 .553-.447 1-1 1z" fill="#0bb1e5" data-original="#000000" style="" class=""/></g><g><path d="m37 27.994h-6c-.553 0-1-.447-1-1s.447-1 1-1h6c.553 0 1 .447 1 1s-.447 1-1 1z" fill="#0bb1e5" data-original="#000000" style="" class=""/></g><g><path d="m23 35.994c-.553 0-1-.447-1-1 0-4.963 4.037-9 9-9 .553 0 1 .447 1 1s-.447 1-1 1c-3.859 0-7 3.141-7 7 0 .553-.447 1-1 1z" fill="#0bb1e5" data-original="#000000" style="" class=""/></g><g><g><path d="m40.999 39.021c-.192 0-.388-.057-.56-.172l-3-2.024c-.457-.31-.578-.931-.27-1.39.311-.457.932-.576 1.389-.27l3 2.025c.459.31.578.931.271 1.389-.192.288-.509.442-.83.442z" fill="#0bb1e5" data-original="#000000" style="" class=""/></g><g><path d="m32.5 37.996c-3.612 0-6.687-1.008-6.815-1.051-.523-.176-.807-.74-.634-1.264.174-.523.74-.809 1.264-.636.029.011 2.908.949 6.186.949 3.179 0 5.04-.888 5.06-.897.492-.238 1.094-.037 1.336.457.244.494.043 1.09-.448 1.336-.094.048-2.263 1.106-5.949 1.106z" fill="#0bb1e5" data-original="#000000" style="" class=""/></g><g><path d="m23.001 39.021c-.321 0-.637-.154-.83-.44-.309-.458-.188-1.079.27-1.39l3-2.024c.459-.308 1.08-.188 1.389.271.309.457.188 1.078-.27 1.389l-3 2.025c-.172.114-.367.169-.559.169z" fill="#0bb1e5" data-original="#000000" style="" class=""/></g></g><g><path d="m2 30.99c-.553 0-1-.447-1-1v-.496c0-.553.447-1 1-1s1 .447 1 1v.496c0 .553-.447 1-1 1z" fill="#0bb1e5" data-original="#000000" style="" class=""/></g><g><g><path d="m47 35.002c-.553 0-1-.447-1-1v-5.002c0-.553.447-1 1-1s1 .447 1 1v5.002c0 .553-.447 1-1 1z" fill="#0bb1e5" data-original="#000000" style="" class=""/></g><g><path d="m61 35.002c-.553 0-1-.447-1-1v-5.002c0-.553.447-1 1-1s1 .447 1 1v5.002c0 .553-.447 1-1 1z" fill="#0bb1e5" data-original="#000000" style="" class=""/></g><g><path d="m54 41.994c-4.411 0-8-3.588-8-7.998 0-.553.447-1 1-1s1 .447 1 1c0 3.309 2.691 5.998 6 5.998s6-2.689 6-5.998c0-.553.447-1 1-1s1 .447 1 1c0 4.41-3.589 7.998-8 7.998z" fill="#0bb1e5" data-original="#000000" style="" class=""/></g><g><g><path d="m61 30c-.553 0-1-.447-1-1 0-3.307-2.691-5.996-6-5.996s-6 2.689-6 5.996c0 .553-.447 1-1 1s-1-.447-1-1c0-4.409 3.589-7.996 8-7.996s8 3.587 8 7.996c0 .553-.447 1-1 1z" fill="#0bb1e5" data-original="#000000" style="" class=""/></g><g><path d="m53.938 31.018c-2.9 0-5.256-1.069-5.354-1.115-.501-.23-.72-.823-.49-1.324s.823-.723 1.325-.493c.021.01 2.072.933 4.52.933 2.481 0 4.646-.923 4.668-.932.506-.221 1.096.015 1.313.521s-.015 1.096-.521 1.314c-.106.045-2.572 1.096-5.461 1.096z" fill="#0bb1e5" data-original="#000000" style="" class=""/></g><g><g><path d="m61 32.004c-.254 0-.509-.097-.704-.289l-2-1.98c-.392-.389-.396-1.022-.007-1.415.391-.392 1.021-.395 1.415-.007l2 1.98c.392.389.396 1.022.007 1.415-.195.197-.453.296-.711.296z" fill="#0bb1e5" data-original="#000000" style="" class=""/></g><g><path d="m47 32.023c-.255 0-.512-.097-.705-.291-.393-.39-.395-1.022-.004-1.414l2-2.01c.391-.391 1.023-.394 1.414-.004.393.39.395 1.022.004 1.414l-2 2.01c-.195.197-.452.295-.709.295z" fill="#0bb1e5" data-original="#000000" style="" class=""/></g></g></g></g><g><path d="m10 47c-2.243 0-4-1.318-4-3.002 0-.553.447-1 1-1s1 .447 1 1c0 .408.779 1.002 2 1.002s2-.594 2-1.002c0-.553.447-1 1-1s1 .447 1 1c0 1.684-1.757 3.002-4 3.002z" fill="#0bb1e5" data-original="#000000" style="" class=""/></g><g><path d="m54 47c-2.243 0-4-1.318-4-3.002 0-.553.447-1 1-1s1 .447 1 1c0 .408.779 1.002 2 1.002s2-.594 2-1.002c0-.553.447-1 1-1s1 .447 1 1c0 1.684-1.757 3.002-4 3.002z" fill="#0bb1e5" data-original="#000000" style="" class=""/></g><g><path d="m32 57c-2.757 0-5-1.797-5-4.006 0-.553.447-1 1-1s1 .447 1 1c0 1.087 1.374 2.006 3 2.006s3-.919 3-2.006c0-.553.447-1 1-1s1 .447 1 1c0 2.209-2.243 4.006-5 4.006z" fill="#0bb1e5" data-original="#000000" style="" class=""/></g><g><path d="m10 51.998c-.553 0-1-.447-1-1v-2c0-.553.447-1 1-1s1 .447 1 1v2c0 .553-.447 1-1 1z" fill="#0bb1e5" data-original="#000000" style="" class=""/></g><g><path d="m52.5 51.998c-.553 0-1-.447-1-1v-2c0-.553.447-1 1-1s1 .447 1 1v2c0 .553-.447 1-1 1z" fill="#0bb1e5" data-original="#000000" style="" class=""/></g><g><path d="m55.5 51.998c-.553 0-1-.447-1-1v-2c0-.553.447-1 1-1s1 .447 1 1v2c0 .553-.447 1-1 1z" fill="#0bb1e5" data-original="#000000" style="" class=""/></g><g><path d="m32 64c-.553 0-1-.447-1-1v-3c0-.553.447-1 1-1s1 .447 1 1v3c0 .553-.447 1-1 1z" fill="#0bb1e5" data-original="#000000" style="" class=""/></g><g><path d="m35 64c-.553 0-1-.447-1-1v-3c0-.553.447-1 1-1s1 .447 1 1v3c0 .553-.447 1-1 1z" fill="#0bb1e5" data-original="#000000" style="" class=""/></g><g><path d="m29 64c-.553 0-1-.447-1-1v-3c0-.553.447-1 1-1s1 .447 1 1v3c0 .553-.447 1-1 1z" fill="#0bb1e5" data-original="#000000" style="" class=""/></g><g><g><path d="m32 24c-6.617 0-12-5.383-12-12s5.383-12 12-12 12 5.383 12 12-5.383 12-12 12zm0-22c-5.514 0-10 4.486-10 10s4.486 10 10 10 10-4.486 10-10-4.486-10-10-10z" fill="#0bb1e5" data-original="#000000" style="" class=""/></g><g><path d="m41.313 7.162c-.047 0-.097-.003-.146-.011l-4.616-.678c-.324-.048-.605-.252-.751-.547l-2.048-4.154c-.245-.496-.041-1.095.454-1.339.498-.245 1.095-.041 1.339.454l1.816 3.684 4.097.602c.546.08.924.588.844 1.135-.073.497-.5.854-.989.854z" fill="#0bb1e5" data-original="#000000" style="" class=""/></g><g><path d="m40.396 20.1c-.479 0-.901-.344-.984-.831l-.803-4.684c-.057-.324.052-.656.287-.886l3.361-3.271c.396-.386 1.029-.375 1.414.02.385.396.376 1.028-.02 1.414l-2.984 2.904.714 4.165c.095.544-.272 1.062-.815 1.154-.058.01-.115.015-.17.015z" fill="#0bb1e5" data-original="#000000" style="" class=""/></g><g><path d="m27.778 23.152c-.36 0-.708-.194-.887-.536-.257-.489-.067-1.093.422-1.35l4.223-2.213c.291-.152.637-.152.928 0l4.224 2.213c.489.256.68.86.422 1.35-.256.488-.86.681-1.35.422l-3.76-1.97-3.759 1.97c-.147.078-.306.114-.463.114z" fill="#0bb1e5" data-original="#000000" style="" class=""/></g><g><path d="m23.604 20.1c-.056 0-.113-.005-.17-.015-.545-.093-.91-.61-.816-1.154l.715-4.165-2.987-2.904c-.396-.385-.404-1.018-.02-1.414.386-.395 1.018-.405 1.414-.02l3.364 3.271c.236.229.344.563.288.886l-.804 4.684c-.082.487-.505.831-.984.831z" fill="#0bb1e5" data-original="#000000" style="" class=""/></g><g><path d="m22.688 7.162c-.488 0-.915-.357-.988-.854-.08-.547.298-1.055.844-1.135l4.097-.602 1.814-3.684c.246-.494.844-.696 1.34-.455.495.244.699.844.455 1.34l-2.047 4.154c-.146.295-.427.499-.752.547l-4.616.678c-.051.008-.1.011-.147.011z" fill="#0bb1e5" data-original="#000000" style="" class=""/></g><g><path d="m34.6 15.984h-5.2c-.434 0-.817-.279-.951-.69l-1.606-4.941c-.134-.412.013-.863.363-1.118l4.206-3.059c.35-.256.826-.256 1.176 0l4.206 3.059c.351.255.497.706.363 1.118l-1.606 4.941c-.134.411-.518.69-.951.69zm-4.473-2h3.746l1.156-3.56-3.029-2.203-3.03 2.204z" fill="#0bb1e5" data-original="#000000" style="" class=""/></g></g></g></g></svg>
