<?xml version="1.0"?>
<svg xmlns="http://www.w3.org/2000/svg" xmlns:xlink="http://www.w3.org/1999/xlink" xmlns:svgjs="http://svgjs.com/svgjs" version="1.1" width="512" height="512" x="0" y="0" viewBox="0 0 474.151 474.151" style="enable-background:new 0 0 512 512" xml:space="preserve" class=""><g>
<g xmlns="http://www.w3.org/2000/svg" id="worpress_1_">
	<g>
		<path d="M0,237.077c0,93.809,54.53,174.922,133.626,213.344L20.528,140.625C7.366,170.077,0,202.715,0,237.077z" fill="#0bb1e5" data-original="#000000" style="" class=""/>
	</g>
	<g>
		<path d="M241.246,257.791l-71.154,206.681c21.236,6.219,43.729,9.663,66.968,9.663c27.613,0,54.103-4.784,78.738-13.436    c-0.616-1.028-1.209-2.119-1.7-3.288L241.246,257.791z" fill="#0bb1e5" data-original="#000000" style="" class=""/>
	</g>
	<g>
		<path d="M397.112,225.089c0-29.295-10.551-49.573-19.554-65.348c-12.017-19.537-23.286-36.06-23.286-55.622    c0-21.75,16.523-42.045,39.809-42.045c1.068,0,2.074,0.141,3.063,0.188C354.99,23.63,298.791,0.016,237.06,0.016    c-82.828,0-153.093,41.813-195.895,103.605c5.557,0.203,76.252,0.498,76.252,0.498c12.78-0.716,14.291,18.051,1.534,19.563    c0,0-12.852,1.496-27.145,2.244l86.335,256.746l51.874-155.557l-36.927-101.19c-12.771-0.748-24.853-1.06-24.853-1.06    c-12.772-0.748-11.278-18.377,1.48-18.377h125.646c12.773,0,14.271,16.865,1.496,18.377c0,0-12.851,0.903-27.12,1.652    l85.688,254.518l23.629-79.15C391.089,271.079,397.112,245.399,397.112,225.089z" fill="#0bb1e5" data-original="#000000" style="" class=""/>
	</g>
	<g>
		<path d="M445.097,123.338c1.021,7.576,1.605,15.682,1.605,24.395c0,24.042-4.504,51.07-18.049,84.885l-72.401,209.34    c70.5-41.088,117.899-117.432,117.899-204.881C474.151,195.857,463.614,157.108,445.097,123.338z" fill="#0bb1e5" data-original="#000000" style="" class=""/>
	</g>
</g>
<g xmlns="http://www.w3.org/2000/svg">
</g>
<g xmlns="http://www.w3.org/2000/svg">
</g>
<g xmlns="http://www.w3.org/2000/svg">
</g>
<g xmlns="http://www.w3.org/2000/svg">
</g>
<g xmlns="http://www.w3.org/2000/svg">
</g>
<g xmlns="http://www.w3.org/2000/svg">
</g>
<g xmlns="http://www.w3.org/2000/svg">
</g>
<g xmlns="http://www.w3.org/2000/svg">
</g>
<g xmlns="http://www.w3.org/2000/svg">
</g>
<g xmlns="http://www.w3.org/2000/svg">
</g>
<g xmlns="http://www.w3.org/2000/svg">
</g>
<g xmlns="http://www.w3.org/2000/svg">
</g>
<g xmlns="http://www.w3.org/2000/svg">
</g>
<g xmlns="http://www.w3.org/2000/svg">
</g>
<g xmlns="http://www.w3.org/2000/svg">
</g>
</g></svg>
